<svg width="232" height="191" viewBox="0 0 232 191" fill="none" xmlns="http://www.w3.org/2000/svg">
<path d="M103.976 1.12584C102.312 1.73117 100.496 2.26083 99.9661 2.26083C98.8311 2.26083 90.5077 6.34684 86.1947 8.99517C84.7571 9.82751 82.8654 10.8868 81.9574 11.2652C81.1251 11.6435 78.1741 13.3082 75.5257 14.8972C72.8774 16.5618 70.1534 18.0752 69.5481 18.3778C68.9427 18.6805 67.4294 19.5885 66.1431 20.4208C64.9324 21.2532 62.8894 22.3882 61.6031 22.9935C60.3924 23.5988 57.6684 25.1878 55.5497 26.3985C53.5067 27.6848 51.0854 29.0468 50.2531 29.5008C49.4207 29.9548 47.7561 30.9385 46.4697 31.7708C45.2591 32.6032 43.6701 33.5112 43.0647 33.8138C40.8704 34.7975 32.0931 41.6832 27.6287 45.9962C21.3484 51.9738 15.2194 59.1622 11.1334 65.4425C7.57706 70.8148 2.20473 81.0298 2.20473 82.3162C2.20473 82.6945 1.67506 84.0565 0.994062 85.3428C-0.519271 88.4452 -0.140938 91.2448 1.67506 90.9422C2.43173 90.7908 5.60973 89.2018 8.78773 87.3102C11.8901 85.4942 14.5384 83.9808 14.7654 83.9808C14.9167 83.9808 18.4731 81.9378 22.7104 79.4408C26.8721 76.9438 30.5041 74.9008 30.6554 74.9008C30.8067 74.9008 33.3794 73.4632 36.4061 71.6472C39.4327 69.8312 42.4594 68.1665 43.0647 67.8638C43.6701 67.5612 46.2427 66.1235 48.7397 64.6858C51.2367 63.2482 53.9607 61.6592 54.7931 61.2808C55.6254 60.8268 57.3657 59.8432 58.5764 59.0108C59.8627 58.1785 61.3761 57.2705 61.9814 56.9678C62.5867 56.6652 65.6134 55.0005 68.6401 53.1845C71.7424 51.3685 74.3151 49.9308 74.5421 49.9308C74.6934 49.9308 77.2661 48.4932 80.2927 46.6772C83.3194 44.8612 86.3461 43.1965 86.9514 42.8938C87.5567 42.5912 89.4484 41.5318 91.1131 40.6238C113.283 27.7605 118.429 27.4578 136.21 38.2782C138.556 39.7158 140.675 40.8508 140.977 40.8508C141.204 40.8508 143.701 42.2128 146.425 43.9532C149.225 45.6178 152.252 47.3582 153.084 47.7365C153.992 48.1148 155.884 49.1742 157.321 50.0065C158.759 50.9145 161.483 52.4278 163.375 53.4872C165.266 54.4708 167.99 56.0598 169.428 56.8922C170.866 57.7245 173.59 59.2378 175.481 60.2972C177.373 61.2808 180.627 63.1725 182.67 64.3832C184.788 65.6695 187.512 67.1828 188.723 67.7882C190.009 68.3935 192.052 69.5285 193.263 70.3608C194.549 71.1932 196.063 72.1012 196.668 72.4038C197.652 72.8578 206.807 78.1545 210.288 80.2732C210.893 80.6515 213.163 81.7865 215.206 82.9215C219.217 85.0402 220.125 85.4942 225.573 88.6722C230.037 91.3205 231.475 91.3962 231.475 88.8235C231.475 86.5535 226.935 75.2792 224.286 71.1175C223.227 69.4528 222.395 67.9395 222.395 67.7125C222.395 67.4855 221.184 65.5182 219.595 63.3238C213.163 54.0925 205.37 45.8448 197.273 39.5645C193.566 36.7648 178.281 27.2308 177.449 27.2308C177.297 27.2308 172.909 24.7338 167.839 21.7072C162.694 18.6805 157.927 15.9565 157.321 15.6538C156.716 15.3512 155.203 14.4432 153.916 13.6108C152.706 12.7785 151.117 11.8705 150.511 11.5678C149.906 11.2652 146.955 9.6005 144.004 7.78451C141.053 5.96851 138.253 4.53084 137.799 4.53084C137.345 4.53084 136.059 4.07684 134.848 3.4715C133.713 2.86617 130.914 1.80684 128.644 1.20151C123.347 -0.387497 108.214 -0.387497 103.976 1.12584Z" fill="#eca760"/>
<path d="M116 140C132.772 140 147.399 130.823 155.139 117.218L99.7471 84.7244L99.0283 84.3026L99.7383 83.867L114.878 74.574L115.134 74.4168L115.393 74.5682L160.589 101.081C160.858 99.092 161 97.0624 161 94.9998C161 70.147 140.853 49.9998 116 49.9998C91.1472 49.9998 71 70.147 71 94.9998C71 119.853 91.1472 140 116 140Z" fill="#eca760"/>
<path d="M0.237475 99.4924C-0.0651915 100.098 -0.0651915 101.384 0.161809 102.368C1.22114 106.908 5.98814 117.577 9.01481 122.192C9.84714 123.403 10.7551 124.992 11.0578 125.597C12.3441 128.473 21.4998 139.444 27.2505 144.892C33.9091 151.248 40.5678 156.015 49.4965 160.782C52.4475 162.371 56.0795 164.49 57.6685 165.474C59.2575 166.457 61.3005 167.592 62.2085 168.046C63.1165 168.425 64.9325 169.408 66.1431 170.165C67.4295 170.997 69.9265 172.511 71.8181 173.494C73.7098 174.554 76.4338 176.067 77.8715 176.975C79.3091 177.807 81.0495 178.791 81.6548 179.094C82.2601 179.396 85.2868 181.061 88.3135 182.877C91.3401 184.693 94.1398 186.131 94.4425 186.131C94.8208 186.131 96.1071 186.585 97.3178 187.19C102.614 189.838 107.079 190.671 115.705 190.671C125.239 190.671 129.703 189.611 138.707 185.374C142.793 183.482 154.295 176.975 158.835 174.024C159.44 173.57 160.499 173.04 161.105 172.738C161.71 172.435 163.904 171.224 166.023 170.014C168.066 168.803 172.001 166.609 174.725 165.095C177.449 163.658 180.702 161.766 181.913 161.009C183.199 160.253 185.015 159.269 185.999 158.891C189.48 157.377 197.803 151.324 202.419 147.011C206.505 143.152 209.683 139.747 215.206 133.088C221.714 125.295 231.475 106.227 231.475 101.308C231.475 98.7357 230.188 98.5087 227.464 100.627C226.405 101.46 225.346 102.141 225.043 102.141C224.589 102.141 215.055 107.589 211.801 109.707C211.196 110.161 210.137 110.691 209.531 110.994C208.926 111.296 205.899 112.961 202.873 114.777C199.77 116.593 197.198 118.031 196.971 118.031C196.819 118.031 194.247 119.468 191.22 121.284C188.193 123.1 185.167 124.765 184.561 125.068C183.956 125.37 182.745 126.051 181.913 126.581C181.081 127.111 177.978 128.851 175.103 130.516C172.152 132.18 169.125 133.921 168.293 134.45C167.461 134.98 166.25 135.585 165.645 135.888C165.039 136.191 162.013 137.931 158.986 139.747C155.884 141.563 153.311 143.001 153.084 143.001C152.933 143.001 150.209 144.514 147.031 146.406C143.928 148.297 141.129 149.811 140.977 149.811C140.75 149.811 137.27 151.778 133.259 154.199C124.104 159.723 119.261 160.934 111.997 159.647C107.533 158.815 103.22 157.226 99.8148 155.107C97.6961 153.745 87.3298 147.843 86.1948 147.314C85.5895 147.011 83.3951 145.725 81.2765 144.438C79.2335 143.228 76.5095 141.639 75.2231 141.033C74.0125 140.428 71.9695 139.293 70.6831 138.461C69.4725 137.628 67.8835 136.72 67.2781 136.418C65.9161 135.812 51.5395 127.413 49.8748 126.354C49.2695 125.9 48.2101 125.37 47.6048 125.068C46.9995 124.765 43.9728 123.1 40.9461 121.284C37.8438 119.468 35.2711 118.031 35.1198 118.031C34.9685 118.031 32.3958 116.593 29.2935 114.777C26.2668 112.961 23.2401 111.296 22.6348 110.994C22.0295 110.691 20.2891 109.707 18.8515 108.875C17.4138 107.967 14.6898 106.454 12.7981 105.394C10.9065 104.411 8.71214 103.2 7.87981 102.67C0.842808 98.3574 0.691475 98.2817 0.237475 99.4924Z" fill="#eca760"/>
</svg>
